# xmcd
# 
# Track frame offsets:
#     150
#     26964
#     48230
#     62870
#     88987
#     109749
#     131507
#     157221
#     177510
#     192860
#     223643
#     252712
# 
# Disc length: 3737
# 
# Revision: 6
# Processed by: cddbd v1.5.2PL0 Copyright (c) Steve Scherf et al.
# Submitted via: fre:ac v1.0.17
# 
DISCID=bb0e970c
DTITLE=Rui Veloso - O Concerto Acústico CD1
DYEAR=2003
DGENRE=Blues
TTITLE0=Fado Do Ladrão Enamorado
TTITLE1=A Gente Não Lê
TTITLE2=Nunca Me Esqueci De Ti
TTITLE3=Bairro Do Oriente
TTITLE4=Saiu Para A Rua
TTITLE5=Nativa
TTITLE6=Sayago Blues
TTITLE7=Os Velhos Do Jardim
TTITLE8=Jura
TTITLE9=Todo O Tempo Do Mundo
TTITLE10=Porto Côvo
TTITLE11=Data Track
EXTD=
EXTT0=
EXTT1=
EXTT2=
EXTT3=
EXTT4=
EXTT5=
EXTT6=
EXTT7=
EXTT8=
EXTT9=
EXTT10=
EXTT11=
PLAYORDER=
